<svg width="28" height="26" viewBox="0 0 28 26" fill="none" xmlns="http://www.w3.org/2000/svg">
<path d="M20.8594 25.1184C20.2973 25.1183 19.7512 24.9306 19.3079 24.5849L14.27 20.6823L10.8924 24.4104C10.7437 24.5743 10.5542 24.6958 10.3432 24.7625C10.1322 24.8292 9.90732 24.8387 9.69145 24.7901C9.47558 24.7414 9.2765 24.6363 9.11453 24.4855C8.95257 24.3348 8.83353 24.1437 8.76957 23.9318L6.24395 15.5798L1.7127 14.0039C1.22351 13.8334 0.797754 13.5182 0.492004 13.1C0.186255 12.6818 0.0149812 12.1805 0.000938389 11.6627C-0.0131045 11.1448 0.130748 10.635 0.413385 10.2008C0.696021 9.76671 1.10406 9.42885 1.5833 9.23215L23.9832 0.187949C24.4106 0.0142039 24.8771 -0.0404737 25.3331 0.0297296C25.7891 0.0999329 26.2176 0.292393 26.5729 0.586649C26.9283 0.880904 27.1973 1.26596 27.3513 1.70087C27.5053 2.13578 27.5385 2.6043 27.4475 3.05661L23.3692 23.0774C23.2484 23.6538 22.9331 24.1712 22.4761 24.5428C22.0192 24.9144 21.4484 25.1176 20.8594 25.1184H20.8594Z" fill="#014034"/>
<path d="M9.96588 24.8205C9.69764 24.8206 9.4365 24.7343 9.22107 24.5745C9.00564 24.4147 8.84736 24.1898 8.76963 23.933L6.05963 14.984C5.97492 14.7052 5.99042 14.4055 6.10345 14.1369C6.21648 13.8682 6.41992 13.6476 6.67852 13.5132L19.8878 6.6357C20.1525 6.49753 20.4581 6.45876 20.749 6.52641C21.0399 6.59407 21.2969 6.76368 21.4736 7.00452C21.6502 7.24536 21.7348 7.5415 21.7119 7.8393C21.689 8.13709 21.5603 8.41685 21.3489 8.6279L12.4952 17.4816L11.1902 23.8219C11.1345 24.0944 10.9894 24.3404 10.778 24.521C10.5666 24.7017 10.301 24.8066 10.0232 24.8193C10.0037 24.8205 9.98418 24.8205 9.96588 24.8205Z" fill="#0CCE6B"/>
</svg>
