<svg width="200" height="42" viewBox="0 0 200 42" fill="none" xmlns="http://www.w3.org/2000/svg">
<mask id="path-1-outside-1_4_8" maskUnits="userSpaceOnUse" x="2" y="6" width="159" height="30" fill="black">
<rect fill="white" x="2" y="6" width="159" height="30"/>
<path d="M12.492 20.904L11.952 19.968L13.968 18.816C15.624 17.904 16.452 16.452 16.452 14.46C16.452 10.74 13.62 8.88 7.956 8.88H4.644V33H3.564V7.8H7.956C11.124 7.8 13.512 8.388 15.12 9.564C16.728 10.716 17.532 12.348 17.532 14.46C17.532 16.86 16.524 18.624 14.508 19.752L12.492 20.904ZM30.5412 31.584C29.6612 32.688 28.2212 33.24 26.2212 33.24C24.2212 33.24 22.7892 32.672 21.9252 31.536C21.0612 30.4 20.6292 28.568 20.6292 26.04C20.6292 23.512 21.0612 21.68 21.9252 20.544C22.7892 19.408 24.2212 18.84 26.2212 18.84C28.5412 18.84 30.1172 19.6 30.9492 21.12L25.0692 26.04H23.9412L30.0132 20.976C29.3092 20.032 28.0452 19.56 26.2212 19.56C25.4212 19.56 24.7492 19.648 24.2052 19.824C23.6612 19.984 23.1572 20.296 22.6932 20.76C22.2452 21.208 21.9092 21.872 21.6852 22.752C21.4612 23.616 21.3492 24.712 21.3492 26.04C21.3492 27.368 21.4612 28.472 21.6852 29.352C21.9092 30.216 22.2452 30.88 22.6932 31.344C23.1572 31.792 23.6612 32.104 24.2052 32.28C24.7492 32.44 25.4212 32.52 26.2212 32.52C28.0452 32.52 29.3092 32.048 30.0132 31.104L30.5412 31.584ZM40.2337 26.016L43.4977 33H42.7057L39.3457 25.8C39.3777 25.784 39.5137 25.72 39.7537 25.608C40.0097 25.48 40.1857 25.392 40.2817 25.344C40.3777 25.28 40.5377 25.176 40.7617 25.032C40.9857 24.888 41.1537 24.752 41.2657 24.624C41.3777 24.48 41.4977 24.32 41.6257 24.144C41.7697 23.952 41.8737 23.744 41.9377 23.52C42.0017 23.28 42.0337 23.024 42.0337 22.752C42.0337 21.744 41.5537 21 40.5937 20.52C39.6337 20.04 38.4417 19.8 37.0177 19.8H35.0977V33H34.3777V19.08H37.0177C38.9057 19.08 40.3297 19.408 41.2897 20.064C42.2657 20.72 42.7537 21.616 42.7537 22.752C42.7537 23.488 42.5057 24.144 42.0097 24.72C41.5137 25.28 40.9217 25.712 40.2337 26.016ZM50.4247 18.792C52.4087 18.792 53.8167 19.232 54.6487 20.112L54.1687 20.64C53.4007 19.888 52.1847 19.512 50.5207 19.512C48.0247 19.512 46.7767 20.504 46.7767 22.488C46.7767 23.256 47.0807 23.872 47.6887 24.336C48.2967 24.784 49.0327 25.128 49.8967 25.368C50.7767 25.608 51.6487 25.864 52.5127 26.136C53.3927 26.392 54.1367 26.816 54.7447 27.408C55.3527 27.984 55.6567 28.744 55.6567 29.688C55.6567 30.792 55.2007 31.672 54.2887 32.328C53.3767 32.984 52.0567 33.312 50.3287 33.312C49.4807 33.312 48.6407 33.2 47.8087 32.976C46.9927 32.752 46.3847 32.424 45.9847 31.992L46.4647 31.464C47.2807 32.216 48.5367 32.592 50.2327 32.592C51.7847 32.592 52.9527 32.304 53.7367 31.728C54.5367 31.152 54.9367 30.48 54.9367 29.712C54.9367 28.912 54.6327 28.264 54.0247 27.768C53.4167 27.272 52.6727 26.904 51.7927 26.664C50.9287 26.408 50.0567 26.152 49.1767 25.896C48.3127 25.624 47.5767 25.208 46.9687 24.648C46.3607 24.088 46.0567 23.352 46.0567 22.44C46.0567 21.208 46.4647 20.296 47.2807 19.704C48.1127 19.096 49.1607 18.792 50.4247 18.792ZM66.1591 19.824C65.6151 19.648 64.9431 19.56 64.1431 19.56C63.3431 19.56 62.6711 19.648 62.1271 19.824C61.5831 19.984 61.0791 20.296 60.6151 20.76C60.1671 21.208 59.8311 21.872 59.6071 22.752C59.3831 23.616 59.2711 24.712 59.2711 26.04C59.2711 27.368 59.3831 28.472 59.6071 29.352C59.8311 30.216 60.1671 30.88 60.6151 31.344C61.0791 31.792 61.5831 32.104 62.1271 32.28C62.6711 32.44 63.3431 32.52 64.1431 32.52C64.9431 32.52 65.6151 32.44 66.1591 32.28C66.7031 32.104 67.1991 31.792 67.6471 31.344C68.1111 30.88 68.4551 30.216 68.6791 29.352C68.9031 28.472 69.0151 27.368 69.0151 26.04C69.0151 24.712 68.9031 23.616 68.6791 22.752C68.4551 21.872 68.1111 21.208 67.6471 20.76C67.1991 20.296 66.7031 19.984 66.1591 19.824ZM68.4391 31.536C67.5751 32.672 66.1431 33.24 64.1431 33.24C62.1431 33.24 60.7111 32.672 59.8471 31.536C58.9831 30.4 58.5511 28.568 58.5511 26.04C58.5511 23.512 58.9831 21.68 59.8471 20.544C60.7111 19.408 62.1431 18.84 64.1431 18.84C66.1431 18.84 67.5751 19.408 68.4391 20.544C69.3031 21.68 69.7351 23.512 69.7351 26.04C69.7351 28.568 69.3031 30.4 68.4391 31.536ZM73.7058 33V19.08H74.4258L82.2498 31.68V19.08H82.9698V33H82.2498L74.4258 20.376V33H73.7058ZM88.8059 32.28H96.6299L91.7099 20.688L86.4779 33H85.7099L91.7099 18.84L97.7099 33H88.8059V32.28ZM110.66 20.904L110.12 19.968L112.136 18.816C113.792 17.904 114.62 16.452 114.62 14.46C114.62 10.74 111.788 8.88 106.124 8.88H102.812V33H101.732V7.8H106.124C109.292 7.8 111.68 8.388 113.288 9.564C114.896 10.716 115.7 12.348 115.7 14.46C115.7 16.86 114.692 18.624 112.676 19.752L110.66 20.904ZM119.397 19.08H120.117V33H119.397V19.08ZM132.687 32.28V33H124.671V19.08H125.391V32.28H132.687ZM142.46 19.824C141.916 19.648 141.244 19.56 140.444 19.56C139.644 19.56 138.972 19.648 138.428 19.824C137.884 19.984 137.38 20.296 136.916 20.76C136.468 21.208 136.132 21.872 135.908 22.752C135.684 23.616 135.572 24.712 135.572 26.04C135.572 27.368 135.684 28.472 135.908 29.352C136.132 30.216 136.468 30.88 136.916 31.344C137.38 31.792 137.884 32.104 138.428 32.28C138.972 32.44 139.644 32.52 140.444 32.52C141.244 32.52 141.916 32.44 142.46 32.28C143.004 32.104 143.5 31.792 143.948 31.344C144.412 30.88 144.756 30.216 144.98 29.352C145.204 28.472 145.316 27.368 145.316 26.04C145.316 24.712 145.204 23.616 144.98 22.752C144.756 21.872 144.412 21.208 143.948 20.76C143.5 20.296 143.004 19.984 142.46 19.824ZM144.74 31.536C143.876 32.672 142.444 33.24 140.444 33.24C138.444 33.24 137.012 32.672 136.148 31.536C135.284 30.4 134.852 28.568 134.852 26.04C134.852 23.512 135.284 21.68 136.148 20.544C137.012 19.408 138.444 18.84 140.444 18.84C142.444 18.84 143.876 19.408 144.74 20.544C145.604 21.68 146.036 23.512 146.036 26.04C146.036 28.568 145.604 30.4 144.74 31.536ZM159.007 19.08V19.8H153.967V33H153.247V19.8H148.207V19.08H159.007Z"/>
</mask>
<path d="M12.492 20.904L11.952 19.968L13.968 18.816C15.624 17.904 16.452 16.452 16.452 14.46C16.452 10.74 13.62 8.88 7.956 8.88H4.644V33H3.564V7.8H7.956C11.124 7.8 13.512 8.388 15.12 9.564C16.728 10.716 17.532 12.348 17.532 14.46C17.532 16.86 16.524 18.624 14.508 19.752L12.492 20.904ZM30.5412 31.584C29.6612 32.688 28.2212 33.24 26.2212 33.24C24.2212 33.24 22.7892 32.672 21.9252 31.536C21.0612 30.4 20.6292 28.568 20.6292 26.04C20.6292 23.512 21.0612 21.68 21.9252 20.544C22.7892 19.408 24.2212 18.84 26.2212 18.84C28.5412 18.84 30.1172 19.6 30.9492 21.12L25.0692 26.04H23.9412L30.0132 20.976C29.3092 20.032 28.0452 19.56 26.2212 19.56C25.4212 19.56 24.7492 19.648 24.2052 19.824C23.6612 19.984 23.1572 20.296 22.6932 20.76C22.2452 21.208 21.9092 21.872 21.6852 22.752C21.4612 23.616 21.3492 24.712 21.3492 26.04C21.3492 27.368 21.4612 28.472 21.6852 29.352C21.9092 30.216 22.2452 30.88 22.6932 31.344C23.1572 31.792 23.6612 32.104 24.2052 32.28C24.7492 32.44 25.4212 32.52 26.2212 32.52C28.0452 32.52 29.3092 32.048 30.0132 31.104L30.5412 31.584ZM40.2337 26.016L43.4977 33H42.7057L39.3457 25.8C39.3777 25.784 39.5137 25.72 39.7537 25.608C40.0097 25.48 40.1857 25.392 40.2817 25.344C40.3777 25.28 40.5377 25.176 40.7617 25.032C40.9857 24.888 41.1537 24.752 41.2657 24.624C41.3777 24.48 41.4977 24.32 41.6257 24.144C41.7697 23.952 41.8737 23.744 41.9377 23.52C42.0017 23.28 42.0337 23.024 42.0337 22.752C42.0337 21.744 41.5537 21 40.5937 20.52C39.6337 20.04 38.4417 19.8 37.0177 19.8H35.0977V33H34.3777V19.08H37.0177C38.9057 19.08 40.3297 19.408 41.2897 20.064C42.2657 20.72 42.7537 21.616 42.7537 22.752C42.7537 23.488 42.5057 24.144 42.0097 24.72C41.5137 25.28 40.9217 25.712 40.2337 26.016ZM50.4247 18.792C52.4087 18.792 53.8167 19.232 54.6487 20.112L54.1687 20.64C53.4007 19.888 52.1847 19.512 50.5207 19.512C48.0247 19.512 46.7767 20.504 46.7767 22.488C46.7767 23.256 47.0807 23.872 47.6887 24.336C48.2967 24.784 49.0327 25.128 49.8967 25.368C50.7767 25.608 51.6487 25.864 52.5127 26.136C53.3927 26.392 54.1367 26.816 54.7447 27.408C55.3527 27.984 55.6567 28.744 55.6567 29.688C55.6567 30.792 55.2007 31.672 54.2887 32.328C53.3767 32.984 52.0567 33.312 50.3287 33.312C49.4807 33.312 48.6407 33.2 47.8087 32.976C46.9927 32.752 46.3847 32.424 45.9847 31.992L46.4647 31.464C47.2807 32.216 48.5367 32.592 50.2327 32.592C51.7847 32.592 52.9527 32.304 53.7367 31.728C54.5367 31.152 54.9367 30.48 54.9367 29.712C54.9367 28.912 54.6327 28.264 54.0247 27.768C53.4167 27.272 52.6727 26.904 51.7927 26.664C50.9287 26.408 50.0567 26.152 49.1767 25.896C48.3127 25.624 47.5767 25.208 46.9687 24.648C46.3607 24.088 46.0567 23.352 46.0567 22.44C46.0567 21.208 46.4647 20.296 47.2807 19.704C48.1127 19.096 49.1607 18.792 50.4247 18.792ZM66.1591 19.824C65.6151 19.648 64.9431 19.56 64.1431 19.56C63.3431 19.56 62.6711 19.648 62.1271 19.824C61.5831 19.984 61.0791 20.296 60.6151 20.76C60.1671 21.208 59.8311 21.872 59.6071 22.752C59.3831 23.616 59.2711 24.712 59.2711 26.04C59.2711 27.368 59.3831 28.472 59.6071 29.352C59.8311 30.216 60.1671 30.88 60.6151 31.344C61.0791 31.792 61.5831 32.104 62.1271 32.28C62.6711 32.44 63.3431 32.52 64.1431 32.52C64.9431 32.52 65.6151 32.44 66.1591 32.28C66.7031 32.104 67.1991 31.792 67.6471 31.344C68.1111 30.88 68.4551 30.216 68.6791 29.352C68.9031 28.472 69.0151 27.368 69.0151 26.04C69.0151 24.712 68.9031 23.616 68.6791 22.752C68.4551 21.872 68.1111 21.208 67.6471 20.76C67.1991 20.296 66.7031 19.984 66.1591 19.824ZM68.4391 31.536C67.5751 32.672 66.1431 33.24 64.1431 33.24C62.1431 33.24 60.7111 32.672 59.8471 31.536C58.9831 30.4 58.5511 28.568 58.5511 26.04C58.5511 23.512 58.9831 21.68 59.8471 20.544C60.7111 19.408 62.1431 18.84 64.1431 18.84C66.1431 18.84 67.5751 19.408 68.4391 20.544C69.3031 21.68 69.7351 23.512 69.7351 26.04C69.7351 28.568 69.3031 30.4 68.4391 31.536ZM73.7058 33V19.08H74.4258L82.2498 31.68V19.08H82.9698V33H82.2498L74.4258 20.376V33H73.7058ZM88.8059 32.28H96.6299L91.7099 20.688L86.4779 33H85.7099L91.7099 18.84L97.7099 33H88.8059V32.28ZM110.66 20.904L110.12 19.968L112.136 18.816C113.792 17.904 114.62 16.452 114.62 14.46C114.62 10.74 111.788 8.88 106.124 8.88H102.812V33H101.732V7.8H106.124C109.292 7.8 111.68 8.388 113.288 9.564C114.896 10.716 115.7 12.348 115.7 14.46C115.7 16.86 114.692 18.624 112.676 19.752L110.66 20.904ZM119.397 19.08H120.117V33H119.397V19.08ZM132.687 32.28V33H124.671V19.08H125.391V32.28H132.687ZM142.46 19.824C141.916 19.648 141.244 19.56 140.444 19.56C139.644 19.56 138.972 19.648 138.428 19.824C137.884 19.984 137.38 20.296 136.916 20.76C136.468 21.208 136.132 21.872 135.908 22.752C135.684 23.616 135.572 24.712 135.572 26.04C135.572 27.368 135.684 28.472 135.908 29.352C136.132 30.216 136.468 30.88 136.916 31.344C137.38 31.792 137.884 32.104 138.428 32.28C138.972 32.44 139.644 32.52 140.444 32.52C141.244 32.52 141.916 32.44 142.46 32.28C143.004 32.104 143.5 31.792 143.948 31.344C144.412 30.88 144.756 30.216 144.98 29.352C145.204 28.472 145.316 27.368 145.316 26.04C145.316 24.712 145.204 23.616 144.98 22.752C144.756 21.872 144.412 21.208 143.948 20.76C143.5 20.296 143.004 19.984 142.46 19.824ZM144.74 31.536C143.876 32.672 142.444 33.24 140.444 33.24C138.444 33.24 137.012 32.672 136.148 31.536C135.284 30.4 134.852 28.568 134.852 26.04C134.852 23.512 135.284 21.68 136.148 20.544C137.012 19.408 138.444 18.84 140.444 18.84C142.444 18.84 143.876 19.408 144.74 20.544C145.604 21.68 146.036 23.512 146.036 26.04C146.036 28.568 145.604 30.4 144.74 31.536ZM159.007 19.08V19.8H153.967V33H153.247V19.8H148.207V19.08H159.007Z" fill="#008E73"/>
<path d="M12.492 20.904L11.6258 21.4037L12.1235 22.2663L12.9881 21.7722L12.492 20.904ZM11.952 19.968L11.4559 19.0998L10.584 19.5979L11.0858 20.4677L11.952 19.968ZM13.968 18.816L13.4856 17.9401L13.4787 17.9438L13.4719 17.9478L13.968 18.816ZM4.644 8.88V7.88H3.644V8.88H4.644ZM4.644 33V34H5.644V33H4.644ZM3.564 33H2.564V34H3.564V33ZM3.564 7.8V6.8H2.564V7.8H3.564ZM15.12 9.564L14.5297 10.3712L14.5376 10.3769L15.12 9.564ZM14.508 19.752L14.0197 18.8793L14.0119 18.8838L14.508 19.752ZM12.492 20.904L13.3582 20.4043L12.8182 19.4683L11.952 19.968L11.0858 20.4677L11.6258 21.4037L12.492 20.904ZM11.952 19.968L12.4481 20.8362L14.4641 19.6842L13.968 18.816L13.4719 17.9478L11.4559 19.0998L11.952 19.968ZM13.968 18.816L14.4504 19.6919C15.4181 19.159 16.1829 18.4446 16.6997 17.5384C17.2149 16.6349 17.452 15.5963 17.452 14.46H16.452H15.452C15.452 15.3157 15.2751 15.9991 14.9623 16.5476C14.6511 17.0934 14.1739 17.561 13.4856 17.9401L13.968 18.816ZM16.452 14.46H17.452C17.452 12.3022 16.6056 10.5745 14.877 9.43915C13.2217 8.35198 10.8657 7.88 7.956 7.88V8.88V9.88C10.7103 9.88 12.6024 10.338 13.779 11.1108C14.8824 11.8355 15.452 12.8977 15.452 14.46H16.452ZM7.956 8.88V7.88H4.644V8.88V9.88H7.956V8.88ZM4.644 8.88H3.644V33H4.644H5.644V8.88H4.644ZM4.644 33V32H3.564V33V34H4.644V33ZM3.564 33H4.564V7.8H3.564H2.564V33H3.564ZM3.564 7.8V8.8H7.956V7.8V6.8H3.564V7.8ZM7.956 7.8V8.8C11.0277 8.8 13.1675 9.37493 14.5297 10.3712L15.12 9.564L15.7103 8.75683C13.8565 7.40106 11.2203 6.8 7.956 6.8V7.8ZM15.12 9.564L14.5376 10.3769C15.8633 11.3267 16.532 12.6448 16.532 14.46H17.532H18.532C18.532 12.0512 17.5927 10.1053 15.7024 8.75109L15.12 9.564ZM17.532 14.46H16.532C16.532 15.5177 16.3109 16.3813 15.9078 17.0869C15.5057 17.7905 14.8914 18.3916 14.0197 18.8793L14.508 19.752L14.9963 20.6247C16.1406 19.9844 17.0383 19.1395 17.6442 18.0791C18.2491 17.0207 18.532 15.8023 18.532 14.46H17.532ZM14.508 19.752L14.0119 18.8838L11.9959 20.0358L12.492 20.904L12.9881 21.7722L15.0041 20.6202L14.508 19.752ZM30.5412 31.584L31.3232 32.2073L31.9073 31.4745L31.2139 30.8441L30.5412 31.584ZM21.9252 31.536L22.7212 30.9306L22.7212 30.9306L21.9252 31.536ZM21.9252 20.544L21.1293 19.9386L21.1293 19.9386L21.9252 20.544ZM30.9492 21.12L31.5909 21.8869L32.2206 21.3601L31.8264 20.6399L30.9492 21.12ZM25.0692 26.04V27.04H25.4324L25.7109 26.8069L25.0692 26.04ZM23.9412 26.04L23.3007 25.272L21.1808 27.04H23.9412V26.04ZM30.0132 20.976L30.6537 21.744L31.381 21.1374L30.8148 20.3782L30.0132 20.976ZM24.2052 19.824L24.4874 20.7834L24.5003 20.7796L24.513 20.7754L24.2052 19.824ZM22.6932 20.76L21.9861 20.0529L21.9861 20.0529L22.6932 20.76ZM21.6852 22.752L22.6532 23.003L22.6543 22.9987L21.6852 22.752ZM21.6852 29.352L20.7161 29.5987L20.7172 29.603L21.6852 29.352ZM22.6932 31.344L21.9738 32.0386L21.986 32.0512L21.9986 32.0634L22.6932 31.344ZM24.2052 32.28L23.8974 33.2314L23.9102 33.2356L23.9231 33.2394L24.2052 32.28ZM30.0132 31.104L30.6859 30.3641L29.8704 29.6227L29.2116 30.5062L30.0132 31.104ZM30.5412 31.584L29.7592 30.9607C29.1388 31.7391 28.0498 32.24 26.2212 32.24V33.24V34.24C28.3926 34.24 30.1837 33.6369 31.3232 32.2073L30.5412 31.584ZM26.2212 33.24V32.24C24.4005 32.24 23.3279 31.7283 22.7212 30.9306L21.9252 31.536L21.1293 32.1414C22.2506 33.6157 24.042 34.24 26.2212 34.24V33.24ZM21.9252 31.536L22.7212 30.9306C22.0581 30.0588 21.6292 28.499 21.6292 26.04H20.6292H19.6292C19.6292 28.637 20.0644 30.7412 21.1293 32.1414L21.9252 31.536ZM20.6292 26.04H21.6292C21.6292 23.581 22.0581 22.0212 22.7212 21.1494L21.9252 20.544L21.1293 19.9386C20.0644 21.3388 19.6292 23.443 19.6292 26.04H20.6292ZM21.9252 20.544L22.7212 21.1494C23.3279 20.3517 24.4005 19.84 26.2212 19.84V18.84V17.84C24.042 17.84 22.2506 18.4643 21.1293 19.9386L21.9252 20.544ZM26.2212 18.84V19.84C28.318 19.84 29.4745 20.5086 30.072 21.6001L30.9492 21.12L31.8264 20.6399C30.7599 18.6914 28.7645 17.84 26.2212 17.84V18.84ZM30.9492 21.12L30.3075 20.3531L24.4275 25.2731L25.0692 26.04L25.7109 26.8069L31.5909 21.8869L30.9492 21.12ZM25.0692 26.04V25.04H23.9412V26.04V27.04H25.0692V26.04ZM23.9412 26.04L24.5817 26.808L30.6537 21.744L30.0132 20.976L29.3727 20.208L23.3007 25.272L23.9412 26.04ZM30.0132 20.976L30.8148 20.3782C29.8366 19.0664 28.1835 18.56 26.2212 18.56V19.56V20.56C27.9069 20.56 28.7818 20.9976 29.2116 21.5738L30.0132 20.976ZM26.2212 19.56V18.56C25.3551 18.56 24.5717 18.6544 23.8974 18.8726L24.2052 19.824L24.513 20.7754C24.9267 20.6416 25.4874 20.56 26.2212 20.56V19.56ZM24.2052 19.824L23.9231 18.8646C23.1949 19.0788 22.5497 19.4893 21.9861 20.0529L22.6932 20.76L23.4003 21.4671C23.7648 21.1027 24.1275 20.8892 24.4874 20.7834L24.2052 19.824ZM22.6932 20.76L21.9861 20.0529C21.3675 20.6715 20.9663 21.5224 20.7161 22.5053L21.6852 22.752L22.6543 22.9987C22.8521 22.2216 23.123 21.7445 23.4003 21.4671L22.6932 20.76ZM21.6852 22.752L20.7172 22.501C20.4644 23.4763 20.3492 24.6642 20.3492 26.04H21.3492H22.3492C22.3492 24.7598 22.4581 23.7557 22.6532 23.003L21.6852 22.752ZM21.3492 26.04H20.3492C20.3492 27.4166 20.4645 28.6103 20.7161 29.5987L21.6852 29.352L22.6543 29.1053C22.4579 28.3337 22.3492 27.3194 22.3492 26.04H21.3492ZM21.6852 29.352L20.7172 29.603C20.9687 30.5728 21.3689 31.412 21.9738 32.0386L22.6932 31.344L23.4126 30.6494C23.1216 30.348 22.8498 29.8592 22.6532 29.101L21.6852 29.352ZM22.6932 31.344L21.9986 32.0634C22.5581 32.6036 23.1909 33.0029 23.8974 33.2314L24.2052 32.28L24.513 31.3286C24.1315 31.2051 23.7564 30.9804 23.3878 30.6246L22.6932 31.344ZM24.2052 32.28L23.9231 33.2394C24.5877 33.4348 25.3616 33.52 26.2212 33.52V32.52V31.52C25.4809 31.52 24.9107 31.4452 24.4874 31.3206L24.2052 32.28ZM26.2212 32.52V33.52C28.1835 33.52 29.8366 33.0136 30.8148 31.7018L30.0132 31.104L29.2116 30.5062C28.7818 31.0824 27.9069 31.52 26.2212 31.52V32.52ZM30.0132 31.104L29.3405 31.8439L29.8685 32.3239L30.5412 31.584L31.2139 30.8441L30.6859 30.3641L30.0132 31.104ZM40.2337 26.016L39.8295 25.1013L38.8953 25.5141L39.3277 26.4394L40.2337 26.016ZM43.4977 33V34H45.0688L44.4036 32.5766L43.4977 33ZM42.7057 33L41.7995 33.4229L42.0688 34H42.7057V33ZM39.3457 25.8L38.8984 24.9056L38.0279 25.3409L38.4395 26.2229L39.3457 25.8ZM39.7537 25.608L40.1765 26.5142L40.1888 26.5085L40.2009 26.5024L39.7537 25.608ZM40.2817 25.344L40.7289 26.2384L40.7846 26.2106L40.8364 26.176L40.2817 25.344ZM40.7617 25.032L41.3024 25.8732L41.3024 25.8732L40.7617 25.032ZM41.2657 24.624L42.0182 25.2825L42.0373 25.2608L42.055 25.2379L41.2657 24.624ZM41.6257 24.144L40.8257 23.544L40.8212 23.5499L40.8169 23.5558L41.6257 24.144ZM41.9377 23.52L42.8992 23.7947L42.9016 23.7862L42.9039 23.7777L41.9377 23.52ZM40.5937 20.52L41.0409 19.6256L41.0409 19.6256L40.5937 20.52ZM35.0977 19.8V18.8H34.0977V19.8H35.0977ZM35.0977 33V34H36.0977V33H35.0977ZM34.3777 33H33.3777V34H34.3777V33ZM34.3777 19.08V18.08H33.3777V19.08H34.3777ZM41.2897 20.064L40.7254 20.8897L40.7318 20.894L41.2897 20.064ZM42.0097 24.72L42.7583 25.3831L42.7674 25.3725L42.0097 24.72ZM40.2337 26.016L39.3277 26.4394L42.5917 33.4234L43.4977 33L44.4036 32.5766L41.1396 25.5926L40.2337 26.016ZM43.4977 33V32H42.7057V33V34H43.4977V33ZM42.7057 33L43.6118 32.5771L40.2518 25.3771L39.3457 25.8L38.4395 26.2229L41.7995 33.4229L42.7057 33ZM39.3457 25.8L39.7929 26.6944C39.7912 26.6953 39.7976 26.6921 39.8191 26.6819C39.8381 26.6728 39.8641 26.6605 39.8975 26.6448C39.964 26.6135 40.0569 26.57 40.1765 26.5142L39.7537 25.608L39.3308 24.7018C39.0998 24.8096 38.9461 24.8817 38.8984 24.9056L39.3457 25.8ZM39.7537 25.608L40.2009 26.5024C40.4569 26.3744 40.6329 26.2864 40.7289 26.2384L40.2817 25.344L39.8344 24.4496C39.7384 24.4976 39.5624 24.5856 39.3064 24.7136L39.7537 25.608ZM40.2817 25.344L40.8364 26.176C40.9248 26.1171 41.0787 26.017 41.3024 25.8732L40.7617 25.032L40.2209 24.1908C39.9967 24.335 39.8305 24.4429 39.727 24.512L40.2817 25.344ZM40.7617 25.032L41.3024 25.8732C41.5661 25.7037 41.82 25.5091 42.0182 25.2825L41.2657 24.624L40.5131 23.9655C40.4873 23.9949 40.4052 24.0723 40.2209 24.1908L40.7617 25.032ZM41.2657 24.624L42.055 25.2379C42.1747 25.084 42.3012 24.9153 42.4344 24.7322L41.6257 24.144L40.8169 23.5558C40.6941 23.7247 40.5806 23.876 40.4763 24.0101L41.2657 24.624ZM41.6257 24.144L42.4257 24.744C42.6406 24.4573 42.8006 24.1397 42.8992 23.7947L41.9377 23.52L40.9761 23.2453C40.9467 23.3483 40.8987 23.4467 40.8257 23.544L41.6257 24.144ZM41.9377 23.52L42.9039 23.7777C42.9923 23.4461 43.0337 23.1028 43.0337 22.752H42.0337H41.0337C41.0337 22.9452 41.011 23.1139 40.9714 23.2623L41.9377 23.52ZM42.0337 22.752H43.0337C43.0337 22.0831 42.8721 21.451 42.514 20.8959C42.1581 20.3443 41.6471 19.9287 41.0409 19.6256L40.5937 20.52L40.1464 21.4144C40.5002 21.5913 40.7092 21.7877 40.8334 21.9801C40.9552 22.169 41.0337 22.4129 41.0337 22.752H42.0337ZM40.5937 20.52L41.0409 19.6256C39.9043 19.0573 38.5483 18.8 37.0177 18.8V19.8V20.8C38.335 20.8 39.363 21.0227 40.1464 21.4144L40.5937 20.52ZM37.0177 19.8V18.8H35.0977V19.8V20.8H37.0177V19.8ZM35.0977 19.8H34.0977V33H35.0977H36.0977V19.8H35.0977ZM35.0977 33V32H34.3777V33V34H35.0977V33ZM34.3777 33H35.3777V19.08H34.3777H33.3777V33H34.3777ZM34.3777 19.08V20.08H37.0177V19.08V18.08H34.3777V19.08ZM37.0177 19.08V20.08C38.8187 20.08 40.0061 20.3981 40.7255 20.8896L41.2897 20.064L41.8538 19.2384C40.6532 18.4179 38.9926 18.08 37.0177 18.08V19.08ZM41.2897 20.064L40.7318 20.894C41.4431 21.372 41.7537 21.9628 41.7537 22.752H42.7537H43.7537C43.7537 21.2692 43.0882 20.068 41.8475 19.234L41.2897 20.064ZM42.7537 22.752H41.7537C41.7537 23.2401 41.5972 23.6665 41.2519 24.0675L42.0097 24.72L42.7674 25.3725C43.4141 24.6215 43.7537 23.7359 43.7537 22.752H42.7537ZM42.0097 24.72L41.2611 24.057C40.861 24.5087 40.3867 24.8551 39.8295 25.1013L40.2337 26.016L40.6378 26.9307C41.4566 26.5689 42.1663 26.0513 42.7582 25.383L42.0097 24.72ZM54.6487 20.112L55.3886 20.7847L56.0122 20.0987L55.3753 19.425L54.6487 20.112ZM54.1687 20.64L53.469 21.3545L54.2105 22.0806L54.9086 21.3127L54.1687 20.64ZM47.6887 24.336L47.082 25.131L47.0887 25.1361L47.0955 25.1411L47.6887 24.336ZM49.8967 25.368L49.629 26.3315L49.6335 26.3328L49.8967 25.368ZM52.5127 26.136L52.2124 27.0898L52.2228 27.0931L52.2333 27.0962L52.5127 26.136ZM54.7447 27.408L54.047 28.1245L54.0569 28.134L54.7447 27.408ZM54.2887 32.328L53.7047 31.5162L53.7047 31.5162L54.2887 32.328ZM47.8087 32.976L47.5439 33.9403L47.5487 33.9416L47.8087 32.976ZM45.9847 31.992L45.2447 31.3193L44.6276 31.9982L45.2509 32.6714L45.9847 31.992ZM46.4647 31.464L47.1423 30.7286L46.402 30.0463L45.7247 30.7913L46.4647 31.464ZM53.7367 31.728L53.1523 30.9164L53.1446 30.9221L53.7367 31.728ZM54.0247 27.768L54.6568 26.9931L54.6568 26.9931L54.0247 27.768ZM51.7927 26.664L51.5086 27.6228L51.519 27.6259L51.5295 27.6288L51.7927 26.664ZM49.1767 25.896L48.8764 26.8498L48.8868 26.8531L48.8973 26.8562L49.1767 25.896ZM47.2807 19.704L47.8679 20.5134L47.8707 20.5114L47.2807 19.704ZM50.4247 18.792V19.792C52.3023 19.792 53.3698 20.2149 53.922 20.799L54.6487 20.112L55.3753 19.425C54.2635 18.2491 52.515 17.792 50.4247 17.792V18.792ZM54.6487 20.112L53.9087 19.4393L53.4287 19.9673L54.1687 20.64L54.9086 21.3127L55.3886 20.7847L54.6487 20.112ZM54.1687 20.64L54.8683 19.9255C53.8331 18.9118 52.3068 18.512 50.5207 18.512V19.512V20.512C52.0625 20.512 52.9682 20.8641 53.469 21.3545L54.1687 20.64ZM50.5207 19.512V18.512C49.1669 18.512 47.9668 18.7766 47.0904 19.4732C46.1702 20.2046 45.7767 21.2731 45.7767 22.488H46.7767H47.7767C47.7767 21.7189 48.0071 21.2994 48.3349 21.0388C48.7065 20.7434 49.3784 20.512 50.5207 20.512V19.512ZM46.7767 22.488H45.7767C45.7767 23.5663 46.2249 24.4769 47.082 25.131L47.6887 24.336L48.2953 23.541C47.9364 23.2671 47.7767 22.9457 47.7767 22.488H46.7767ZM47.6887 24.336L47.0955 25.1411C47.8179 25.6734 48.6692 26.0649 49.629 26.3315L49.8967 25.368L50.1643 24.4045C49.3961 24.1911 48.7754 23.8946 48.2819 23.5309L47.6887 24.336ZM49.8967 25.368L49.6335 26.3328C50.5012 26.5694 51.3608 26.8218 52.2124 27.0898L52.5127 26.136L52.8129 25.1822C51.9365 24.9062 51.0521 24.6466 50.1598 24.4032L49.8967 25.368ZM52.5127 26.136L52.2333 27.0962C52.9689 27.3102 53.5657 27.6558 54.047 28.1245L54.7447 27.408L55.4423 26.6915C54.7076 25.9762 53.8164 25.4738 52.792 25.1758L52.5127 26.136ZM54.7447 27.408L54.0569 28.134C54.4393 28.4962 54.6567 28.9802 54.6567 29.688H55.6567H56.6567C56.6567 28.5078 56.266 27.4718 55.4324 26.682L54.7447 27.408ZM55.6567 29.688H54.6567C54.6567 30.4636 54.361 31.0442 53.7047 31.5162L54.2887 32.328L54.8726 33.1398C56.0404 32.2998 56.6567 31.1204 56.6567 29.688H55.6567ZM54.2887 32.328L53.7047 31.5162C53.0322 32 51.9527 32.312 50.3287 32.312V33.312V34.312C52.1606 34.312 53.7211 33.968 54.8726 33.1398L54.2887 32.328ZM50.3287 33.312V32.312C49.5699 32.312 48.8172 32.2119 48.0686 32.0104L47.8087 32.976L47.5487 33.9416C48.4641 34.1881 49.3915 34.312 50.3287 34.312V33.312ZM47.8087 32.976L48.0734 32.0117C47.3627 31.8166 46.9479 31.5604 46.7184 31.3126L45.9847 31.992L45.2509 32.6714C45.8215 33.2876 46.6226 33.6874 47.5439 33.9403L47.8087 32.976ZM45.9847 31.992L46.7246 32.6647L47.2046 32.1367L46.4647 31.464L45.7247 30.7913L45.2447 31.3193L45.9847 31.992ZM46.4647 31.464L45.787 32.1994C46.8643 33.1922 48.4141 33.592 50.2327 33.592V32.592V31.592C48.6592 31.592 47.697 31.2398 47.1423 30.7286L46.4647 31.464ZM50.2327 32.592V33.592C51.8804 33.592 53.298 33.2912 54.3287 32.5339L53.7367 31.728L53.1446 30.9221C52.6073 31.3168 51.6889 31.592 50.2327 31.592V32.592ZM53.7367 31.728L54.321 32.5395C55.3 31.8346 55.9367 30.8908 55.9367 29.712H54.9367H53.9367C53.9367 30.0692 53.7733 30.4694 53.1524 30.9165L53.7367 31.728ZM54.9367 29.712H55.9367C55.9367 28.6184 55.5028 27.6833 54.6568 26.9931L54.0247 27.768L53.3925 28.5429C53.7625 28.8447 53.9367 29.2056 53.9367 29.712H54.9367ZM54.0247 27.768L54.6568 26.9931C53.9242 26.3955 53.049 25.9701 52.0558 25.6992L51.7927 26.664L51.5295 27.6288C52.2964 27.8379 52.9091 28.1485 53.3925 28.5429L54.0247 27.768ZM51.7927 26.664L52.0767 25.7052C51.2111 25.4487 50.3375 25.1923 49.456 24.9358L49.1767 25.896L48.8973 26.8562C49.7758 27.1117 50.6462 27.3673 51.5086 27.6228L51.7927 26.664ZM49.1767 25.896L49.4769 24.9422C48.7396 24.71 48.136 24.3636 47.6461 23.9125L46.9687 24.648L46.2912 25.3835C47.0174 26.0524 47.8857 26.538 48.8764 26.8498L49.1767 25.896ZM46.9687 24.648L47.6461 23.9125C47.2662 23.5625 47.0567 23.1046 47.0567 22.44H46.0567H45.0567C45.0567 23.5994 45.4551 24.6135 46.2912 25.3835L46.9687 24.648ZM46.0567 22.44H47.0567C47.0567 21.4484 47.3698 20.8748 47.8679 20.5134L47.2807 19.704L46.6934 18.8946C45.5596 19.7172 45.0567 20.9676 45.0567 22.44H46.0567ZM47.2807 19.704L47.8707 20.5114C48.4957 20.0546 49.3238 19.792 50.4247 19.792V18.792V17.792C48.9975 17.792 47.7296 18.1374 46.6906 18.8966L47.2807 19.704ZM66.1591 19.824L65.8513 20.7754L65.864 20.7796L65.8769 20.7834L66.1591 19.824ZM62.1271 19.824L62.4093 20.7834L62.4221 20.7796L62.4349 20.7754L62.1271 19.824ZM60.6151 20.76L59.908 20.0529L59.908 20.0529L60.6151 20.76ZM59.6071 22.752L60.5751 23.003L60.5762 22.9987L59.6071 22.752ZM59.6071 29.352L58.638 29.5987L58.6391 29.603L59.6071 29.352ZM60.6151 31.344L59.8957 32.0386L59.9079 32.0512L59.9205 32.0634L60.6151 31.344ZM62.1271 32.28L61.8193 33.2314L61.832 33.2356L61.8449 33.2394L62.1271 32.28ZM66.1591 32.28L66.4413 33.2394L66.4541 33.2356L66.4669 33.2314L66.1591 32.28ZM67.6471 31.344L68.3542 32.0511L68.3542 32.0511L67.6471 31.344ZM68.6791 29.352L69.6471 29.603L69.6482 29.5987L68.6791 29.352ZM68.6791 22.752L67.71 22.9987L67.7111 23.003L68.6791 22.752ZM67.6471 20.76L66.9277 21.4546L66.9399 21.4672L66.9525 21.4794L67.6471 20.76ZM68.4391 31.536L67.6431 30.9306L67.6431 30.9306L68.4391 31.536ZM59.8471 31.536L60.643 30.9306L60.643 30.9306L59.8471 31.536ZM59.8471 20.544L59.0511 19.9386L59.0511 19.9386L59.8471 20.544ZM68.4391 20.544L69.235 19.9386L69.235 19.9386L68.4391 20.544ZM66.1591 19.824L66.4669 18.8726C65.7926 18.6544 65.0092 18.56 64.1431 18.56V19.56V20.56C64.8769 20.56 65.4376 20.6416 65.8513 20.7754L66.1591 19.824ZM64.1431 19.56V18.56C63.2769 18.56 62.4936 18.6544 61.8193 18.8726L62.1271 19.824L62.4349 20.7754C62.8486 20.6416 63.4092 20.56 64.1431 20.56V19.56ZM62.1271 19.824L61.8449 18.8646C61.1168 19.0788 60.4716 19.4893 59.908 20.0529L60.6151 20.76L61.3222 21.4671C61.6866 21.1027 62.0494 20.8892 62.4093 20.7834L62.1271 19.824ZM60.6151 20.76L59.908 20.0529C59.2893 20.6715 58.8882 21.5224 58.638 22.5053L59.6071 22.752L60.5762 22.9987C60.774 22.2216 61.0448 21.7445 61.3222 21.4671L60.6151 20.76ZM59.6071 22.752L58.6391 22.501C58.3862 23.4763 58.2711 24.6642 58.2711 26.04H59.2711H60.2711C60.2711 24.7598 60.3799 23.7557 60.5751 23.003L59.6071 22.752ZM59.2711 26.04H58.2711C58.2711 27.4166 58.3864 28.6103 58.638 29.5987L59.6071 29.352L60.5762 29.1053C60.3798 28.3337 60.2711 27.3194 60.2711 26.04H59.2711ZM59.6071 29.352L58.6391 29.603C58.8905 30.5728 59.2907 31.412 59.8957 32.0386L60.6151 31.344L61.3345 30.6494C61.0434 30.348 60.7717 29.8592 60.5751 29.101L59.6071 29.352ZM60.6151 31.344L59.9205 32.0634C60.4799 32.6036 61.1128 33.0029 61.8193 33.2314L62.1271 32.28L62.4349 31.3286C62.0534 31.2051 61.6782 30.9804 61.3097 30.6246L60.6151 31.344ZM62.1271 32.28L61.8449 33.2394C62.5096 33.4348 63.2834 33.52 64.1431 33.52V32.52V31.52C63.4027 31.52 62.8326 31.4452 62.4093 31.3206L62.1271 32.28ZM64.1431 32.52V33.52C65.0027 33.52 65.7766 33.4348 66.4413 33.2394L66.1591 32.28L65.8769 31.3206C65.4536 31.4452 64.8834 31.52 64.1431 31.52V32.52ZM66.1591 32.28L66.4669 33.2314C67.1772 33.0017 67.8066 32.5987 68.3542 32.0511L67.6471 31.344L66.94 30.6369C66.5916 30.9853 66.229 31.2063 65.8513 31.3286L66.1591 32.28ZM67.6471 31.344L68.3542 32.0511C68.9818 31.4236 69.3938 30.5798 69.6471 29.603L68.6791 29.352L67.7111 29.101C67.5163 29.8522 67.2404 30.3364 66.94 30.6369L67.6471 31.344ZM68.6791 29.352L69.6482 29.5987C69.8998 28.6103 70.0151 27.4166 70.0151 26.04H69.0151H68.0151C68.0151 27.3194 67.9064 28.3337 67.71 29.1053L68.6791 29.352ZM69.0151 26.04H70.0151C70.0151 24.6642 69.8999 23.4763 69.6471 22.501L68.6791 22.752L67.7111 23.003C67.9062 23.7557 68.0151 24.7598 68.0151 26.04H69.0151ZM68.6791 22.752L69.6482 22.5053C69.3962 21.5154 68.9832 20.66 68.3417 20.0406L67.6471 20.76L66.9525 21.4794C67.239 21.756 67.514 22.2286 67.71 22.9987L68.6791 22.752ZM67.6471 20.76L68.3665 20.0654C67.815 19.4942 67.1732 19.0799 66.4413 18.8646L66.1591 19.824L65.8769 20.7834C66.2329 20.8881 66.5832 21.0978 66.9277 21.4546L67.6471 20.76ZM68.4391 31.536L67.6431 30.9306C67.0364 31.7283 65.9638 32.24 64.1431 32.24V33.24V34.24C66.3223 34.24 68.1137 33.6157 69.235 32.1414L68.4391 31.536ZM64.1431 33.24V32.24C62.3223 32.24 61.2497 31.7283 60.643 30.9306L59.8471 31.536L59.0511 32.1414C60.1724 33.6157 61.9638 34.24 64.1431 34.24V33.24ZM59.8471 31.536L60.643 30.9306C59.9799 30.0588 59.5511 28.499 59.5511 26.04H58.5511H57.5511C57.5511 28.637 57.9863 30.7412 59.0511 32.1414L59.8471 31.536ZM58.5511 26.04H59.5511C59.5511 23.581 59.9799 22.0212 60.643 21.1494L59.8471 20.544L59.0511 19.9386C57.9863 21.3388 57.5511 23.443 57.5511 26.04H58.5511ZM59.8471 20.544L60.643 21.1494C61.2497 20.3517 62.3223 19.84 64.1431 19.84V18.84V17.84C61.9638 17.84 60.1724 18.4643 59.0511 19.9386L59.8471 20.544ZM64.1431 18.84V19.84C65.9638 19.84 67.0364 20.3517 67.6431 21.1494L68.4391 20.544L69.235 19.9386C68.1137 18.4643 66.3223 17.84 64.1431 17.84V18.84ZM68.4391 20.544L67.6431 21.1494C68.3063 22.0212 68.7351 23.581 68.7351 26.04H69.7351H70.7351C70.7351 23.443 70.2999 21.3388 69.235 19.9386L68.4391 20.544ZM69.7351 26.04H68.7351C68.7351 28.499 68.3063 30.0588 67.6431 30.9306L68.4391 31.536L69.235 32.1414C70.2999 30.7412 70.7351 28.637 70.7351 26.04H69.7351ZM73.7058 33H72.7058V34H73.7058V33ZM73.7058 19.08V18.08H72.7058V19.08H73.7058ZM74.4258 19.08L75.2753 18.5525L74.9819 18.08H74.4258V19.08ZM82.2498 31.68L81.4002 32.2075L83.2498 35.1861V31.68H82.2498ZM82.2498 19.08V18.08H81.2498V19.08H82.2498ZM82.9698 19.08H83.9698V18.08H82.9698V19.08ZM82.9698 33V34H83.9698V33H82.9698ZM82.2498 33L81.3998 33.5268L81.6931 34H82.2498V33ZM74.4258 20.376L75.2758 19.8492L73.4258 16.8642V20.376H74.4258ZM74.4258 33V34H75.4258V33H74.4258ZM73.7058 33H74.7058V19.08H73.7058H72.7058V33H73.7058ZM73.7058 19.08V20.08H74.4258V19.08V18.08H73.7058V19.08ZM74.4258 19.08L73.5762 19.6075L81.4002 32.2075L82.2498 31.68L83.0993 31.1525L75.2753 18.5525L74.4258 19.08ZM82.2498 31.68H83.2498V19.08H82.2498H81.2498V31.68H82.2498ZM82.2498 19.08V20.08H82.9698V19.08V18.08H82.2498V19.08ZM82.9698 19.08H81.9698V33H82.9698H83.9698V19.08H82.9698ZM82.9698 33V32H82.2498V33V34H82.9698V33ZM82.2498 33L83.0998 32.4732L75.2758 19.8492L74.4258 20.376L73.5758 20.9028L81.3998 33.5268L82.2498 33ZM74.4258 20.376H73.4258V33H74.4258H75.4258V20.376H74.4258ZM74.4258 33V32H73.7058V33V34H74.4258V33ZM88.8059 32.28V31.28H87.8059V32.28H88.8059ZM96.6299 32.28V33.28H98.1407L97.5504 31.8893L96.6299 32.28ZM91.7099 20.688L92.6304 20.2973L91.7105 18.1298L90.7896 20.2969L91.7099 20.688ZM86.4779 33V34H87.1395L87.3983 33.3911L86.4779 33ZM85.7099 33L84.7892 32.6099L84.2001 34H85.7099V33ZM91.7099 18.84L92.6307 18.4499L91.7099 16.2769L90.7892 18.4499L91.7099 18.84ZM97.7099 33V34H99.2197L98.6307 32.6099L97.7099 33ZM88.8059 33H87.8059V34H88.8059V33ZM88.8059 32.28V33.28H96.6299V32.28V31.28H88.8059V32.28ZM96.6299 32.28L97.5504 31.8893L92.6304 20.2973L91.7099 20.688L90.7894 21.0787L95.7094 32.6707L96.6299 32.28ZM91.7099 20.688L90.7896 20.2969L85.5576 32.6089L86.4779 33L87.3983 33.3911L92.6303 21.0791L91.7099 20.688ZM86.4779 33V32H85.7099V33V34H86.4779V33ZM85.7099 33L86.6307 33.3901L92.6307 19.2301L91.7099 18.84L90.7892 18.4499L84.7892 32.6099L85.7099 33ZM91.7099 18.84L90.7892 19.2301L96.7892 33.3901L97.7099 33L98.6307 32.6099L92.6307 18.4499L91.7099 18.84ZM97.7099 33V32H88.8059V33V34H97.7099V33ZM88.8059 33H89.8059V32.28H88.8059H87.8059V33H88.8059ZM110.66 20.904L109.794 21.4037L110.291 22.2663L111.156 21.7722L110.66 20.904ZM110.12 19.968L109.624 19.0998L108.752 19.5979L109.254 20.4677L110.12 19.968ZM112.136 18.816L111.654 17.9401L111.647 17.9438L111.64 17.9478L112.136 18.816ZM102.812 8.88V7.88H101.812V8.88H102.812ZM102.812 33V34H103.812V33H102.812ZM101.732 33H100.732V34H101.732V33ZM101.732 7.8V6.8H100.732V7.8H101.732ZM113.288 9.564L112.698 10.3712L112.706 10.3769L113.288 9.564ZM112.676 19.752L112.188 18.8793L112.18 18.8838L112.676 19.752ZM110.66 20.904L111.526 20.4043L110.986 19.4683L110.12 19.968L109.254 20.4677L109.794 21.4037L110.66 20.904ZM110.12 19.968L110.616 20.8362L112.632 19.6842L112.136 18.816L111.64 17.9478L109.624 19.0998L110.12 19.968ZM112.136 18.816L112.618 19.6919C113.586 19.159 114.351 18.4446 114.868 17.5384C115.383 16.6349 115.62 15.5963 115.62 14.46H114.62H113.62C113.62 15.3157 113.443 15.9991 113.13 16.5476C112.819 17.0934 112.342 17.561 111.654 17.9401L112.136 18.816ZM114.62 14.46H115.62C115.62 12.3022 114.774 10.5745 113.045 9.43915C111.39 8.35198 109.034 7.88 106.124 7.88V8.88V9.88C108.878 9.88 110.77 10.338 111.947 11.1108C113.05 11.8355 113.62 12.8977 113.62 14.46H114.62ZM106.124 8.88V7.88H102.812V8.88V9.88H106.124V8.88ZM102.812 8.88H101.812V33H102.812H103.812V8.88H102.812ZM102.812 33V32H101.732V33V34H102.812V33ZM101.732 33H102.732V7.8H101.732H100.732V33H101.732ZM101.732 7.8V8.8H106.124V7.8V6.8H101.732V7.8ZM106.124 7.8V8.8C109.196 8.8 111.335 9.37493 112.698 10.3712L113.288 9.564L113.878 8.75683C112.024 7.40106 109.388 6.8 106.124 6.8V7.8ZM113.288 9.564L112.706 10.3769C114.031 11.3267 114.7 12.6448 114.7 14.46H115.7H116.7C116.7 12.0512 115.761 10.1053 113.87 8.75109L113.288 9.564ZM115.7 14.46H114.7C114.7 15.5177 114.479 16.3813 114.076 17.0869C113.674 17.7905 113.059 18.3916 112.188 18.8793L112.676 19.752L113.164 20.6247C114.309 19.9844 115.206 19.1395 115.812 18.0791C116.417 17.0207 116.7 15.8023 116.7 14.46H115.7ZM112.676 19.752L112.18 18.8838L110.164 20.0358L110.66 20.904L111.156 21.7722L113.172 20.6202L112.676 19.752ZM119.397 19.08V18.08H118.397V19.08H119.397ZM120.117 19.08H121.117V18.08H120.117V19.08ZM120.117 33V34H121.117V33H120.117ZM119.397 33H118.397V34H119.397V33ZM119.397 19.08V20.08H120.117V19.08V18.08H119.397V19.08ZM120.117 19.08H119.117V33H120.117H121.117V19.08H120.117ZM120.117 33V32H119.397V33V34H120.117V33ZM119.397 33H120.397V19.08H119.397H118.397V33H119.397ZM132.687 32.28H133.687V31.28H132.687V32.28ZM132.687 33V34H133.687V33H132.687ZM124.671 33H123.671V34H124.671V33ZM124.671 19.08V18.08H123.671V19.08H124.671ZM125.391 19.08H126.391V18.08H125.391V19.08ZM125.391 32.28H124.391V33.28H125.391V32.28ZM132.687 32.28H131.687V33H132.687H133.687V32.28H132.687ZM132.687 33V32H124.671V33V34H132.687V33ZM124.671 33H125.671V19.08H124.671H123.671V33H124.671ZM124.671 19.08V20.08H125.391V19.08V18.08H124.671V19.08ZM125.391 19.08H124.391V32.28H125.391H126.391V19.08H125.391ZM125.391 32.28V33.28H132.687V32.28V31.28H125.391V32.28ZM142.46 19.824L142.152 20.7754L142.165 20.7796L142.178 20.7834L142.46 19.824ZM138.428 19.824L138.71 20.7834L138.723 20.7796L138.736 20.7754L138.428 19.824ZM136.916 20.76L136.209 20.0529L136.209 20.0529L136.916 20.76ZM135.908 22.752L136.876 23.003L136.877 22.9987L135.908 22.752ZM135.908 29.352L134.939 29.5987L134.94 29.603L135.908 29.352ZM136.916 31.344L136.196 32.0386L136.209 32.0512L136.221 32.0634L136.916 31.344ZM138.428 32.28L138.12 33.2314L138.133 33.2356L138.146 33.2394L138.428 32.28ZM142.46 32.28L142.742 33.2394L142.755 33.2356L142.768 33.2314L142.46 32.28ZM143.948 31.344L144.655 32.0511L144.655 32.0511L143.948 31.344ZM144.98 29.352L145.948 29.603L145.949 29.5987L144.98 29.352ZM144.98 22.752L144.011 22.9987L144.012 23.003L144.98 22.752ZM143.948 20.76L143.228 21.4546L143.241 21.4672L143.253 21.4794L143.948 20.76ZM144.74 31.536L143.944 30.9306L143.944 30.9306L144.74 31.536ZM136.148 31.536L136.944 30.9306L136.944 30.9306L136.148 31.536ZM136.148 20.544L135.352 19.9386L135.352 19.9386L136.148 20.544ZM144.74 20.544L145.536 19.9386L145.536 19.9386L144.74 20.544ZM142.46 19.824L142.768 18.8726C142.093 18.6544 141.31 18.56 140.444 18.56V19.56V20.56C141.178 20.56 141.738 20.6416 142.152 20.7754L142.46 19.824ZM140.444 19.56V18.56C139.578 18.56 138.794 18.6544 138.12 18.8726L138.428 19.824L138.736 20.7754C139.149 20.6416 139.71 20.56 140.444 20.56V19.56ZM138.428 19.824L138.146 18.8646C137.418 19.0788 136.772 19.4893 136.209 20.0529L136.916 20.76L137.623 21.4671C137.987 21.1027 138.35 20.8892 138.71 20.7834L138.428 19.824ZM136.916 20.76L136.209 20.0529C135.59 20.6715 135.189 21.5224 134.939 22.5053L135.908 22.752L136.877 22.9987C137.075 22.2216 137.346 21.7445 137.623 21.4671L136.916 20.76ZM135.908 22.752L134.94 22.501C134.687 23.4763 134.572 24.6642 134.572 26.04H135.572H136.572C136.572 24.7598 136.681 23.7557 136.876 23.003L135.908 22.752ZM135.572 26.04H134.572C134.572 27.4166 134.687 28.6103 134.939 29.5987L135.908 29.352L136.877 29.1053C136.681 28.3337 136.572 27.3194 136.572 26.04H135.572ZM135.908 29.352L134.94 29.603C135.191 30.5728 135.592 31.412 136.196 32.0386L136.916 31.344L137.635 30.6494C137.344 30.348 137.072 29.8592 136.876 29.101L135.908 29.352ZM136.916 31.344L136.221 32.0634C136.781 32.6036 137.414 33.0029 138.12 33.2314L138.428 32.28L138.736 31.3286C138.354 31.2051 137.979 30.9804 137.61 30.6246L136.916 31.344ZM138.428 32.28L138.146 33.2394C138.81 33.4348 139.584 33.52 140.444 33.52V32.52V31.52C139.704 31.52 139.133 31.4452 138.71 31.3206L138.428 32.28ZM140.444 32.52V33.52C141.304 33.52 142.077 33.4348 142.742 33.2394L142.46 32.28L142.178 31.3206C141.754 31.4452 141.184 31.52 140.444 31.52V32.52ZM142.46 32.28L142.768 33.2314C143.478 33.0017 144.107 32.5987 144.655 32.0511L143.948 31.344L143.241 30.6369C142.892 30.9853 142.53 31.2063 142.152 31.3286L142.46 32.28ZM143.948 31.344L144.655 32.0511C145.283 31.4236 145.695 30.5798 145.948 29.603L144.98 29.352L144.012 29.101C143.817 29.8522 143.541 30.3364 143.241 30.6369L143.948 31.344ZM144.98 29.352L145.949 29.5987C146.201 28.6103 146.316 27.4166 146.316 26.04H145.316H144.316C144.316 27.3194 144.207 28.3337 144.011 29.1053L144.98 29.352ZM145.316 26.04H146.316C146.316 24.6642 146.201 23.4763 145.948 22.501L144.98 22.752L144.012 23.003C144.207 23.7557 144.316 24.7598 144.316 26.04H145.316ZM144.98 22.752L145.949 22.5053C145.697 21.5154 145.284 20.66 144.642 20.0406L143.948 20.76L143.253 21.4794C143.54 21.756 143.815 22.2286 144.011 22.9987L144.98 22.752ZM143.948 20.76L144.667 20.0654C144.116 19.4942 143.474 19.0799 142.742 18.8646L142.46 19.824L142.178 20.7834C142.534 20.8881 142.884 21.0978 143.228 21.4546L143.948 20.76ZM144.74 31.536L143.944 30.9306C143.337 31.7283 142.265 32.24 140.444 32.24V33.24V34.24C142.623 34.24 144.415 33.6157 145.536 32.1414L144.74 31.536ZM140.444 33.24V32.24C138.623 32.24 137.551 31.7283 136.944 30.9306L136.148 31.536L135.352 32.1414C136.473 33.6157 138.265 34.24 140.444 34.24V33.24ZM136.148 31.536L136.944 30.9306C136.281 30.0588 135.852 28.499 135.852 26.04H134.852H133.852C133.852 28.637 134.287 30.7412 135.352 32.1414L136.148 31.536ZM134.852 26.04H135.852C135.852 23.581 136.281 22.0212 136.944 21.1494L136.148 20.544L135.352 19.9386C134.287 21.3388 133.852 23.443 133.852 26.04H134.852ZM136.148 20.544L136.944 21.1494C137.551 20.3517 138.623 19.84 140.444 19.84V18.84V17.84C138.265 17.84 136.473 18.4643 135.352 19.9386L136.148 20.544ZM140.444 18.84V19.84C142.265 19.84 143.337 20.3517 143.944 21.1494L144.74 20.544L145.536 19.9386C144.415 18.4643 142.623 17.84 140.444 17.84V18.84ZM144.74 20.544L143.944 21.1494C144.607 22.0212 145.036 23.581 145.036 26.04H146.036H147.036C147.036 23.443 146.601 21.3388 145.536 19.9386L144.74 20.544ZM146.036 26.04H145.036C145.036 28.499 144.607 30.0588 143.944 30.9306L144.74 31.536L145.536 32.1414C146.601 30.7412 147.036 28.637 147.036 26.04H146.036ZM159.007 19.08H160.007V18.08H159.007V19.08ZM159.007 19.8V20.8H160.007V19.8H159.007ZM153.967 19.8V18.8H152.967V19.8H153.967ZM153.967 33V34H154.967V33H153.967ZM153.247 33H152.247V34H153.247V33ZM153.247 19.8H154.247V18.8H153.247V19.8ZM148.207 19.8H147.207V20.8H148.207V19.8ZM148.207 19.08V18.08H147.207V19.08H148.207ZM159.007 19.08H158.007V19.8H159.007H160.007V19.08H159.007ZM159.007 19.8V18.8H153.967V19.8V20.8H159.007V19.8ZM153.967 19.8H152.967V33H153.967H154.967V19.8H153.967ZM153.967 33V32H153.247V33V34H153.967V33ZM153.247 33H154.247V19.8H153.247H152.247V33H153.247ZM153.247 19.8V18.8H148.207V19.8V20.8H153.247V19.8ZM148.207 19.8H149.207V19.08H148.207H147.207V19.8H148.207ZM148.207 19.08V20.08H159.007V19.08V18.08H148.207V19.08Z" fill="#0CCE6B" mask="url(#path-1-outside-1_4_8)"/>
<path d="M193.109 33.1802C192.547 33.1801 192.001 32.9924 191.558 32.6467L186.52 28.7441L183.142 32.4722C182.994 32.6361 182.804 32.7576 182.593 32.8243C182.382 32.891 182.157 32.9005 181.941 32.8519C181.726 32.8032 181.526 32.6981 181.364 32.5473C181.203 32.3966 181.083 32.2055 181.02 31.9936L178.494 23.6416L173.963 22.0657C173.473 21.8952 173.048 21.58 172.742 21.1618C172.436 20.7436 172.265 20.2423 172.251 19.7245C172.237 19.2066 172.381 18.6968 172.663 18.2626C172.946 17.8285 173.354 17.4906 173.833 17.2939L196.233 8.24975C196.661 8.076 197.127 8.02132 197.583 8.09153C198.039 8.16173 198.468 8.35419 198.823 8.64845C199.178 8.9427 199.447 9.32776 199.601 9.76267C199.755 10.1976 199.788 10.6661 199.697 11.1184L195.619 31.1392C195.498 31.7156 195.183 32.233 194.726 32.6046C194.269 32.9762 193.698 33.1794 193.109 33.1802H193.109Z" fill="#014034"/>
<path d="M182.216 32.8823C181.948 32.8824 181.686 32.7961 181.471 32.6363C181.256 32.4765 181.097 32.2516 181.02 31.9948L178.31 23.0458C178.225 22.767 178.24 22.4673 178.353 22.1987C178.466 21.93 178.67 21.7094 178.928 21.575L192.138 14.6975C192.403 14.5593 192.708 14.5206 192.999 14.5882C193.29 14.6559 193.547 14.8255 193.724 15.0663C193.9 15.3072 193.985 15.6033 193.962 15.9011C193.939 16.1989 193.81 16.4787 193.599 16.6897L184.745 25.5434L183.44 31.8837C183.384 32.1562 183.239 32.4022 183.028 32.5828C182.817 32.7635 182.551 32.8684 182.273 32.8811C182.254 32.8823 182.234 32.8823 182.216 32.8823Z" fill="#0CCE6B"/>
</svg>
